<svg width="21" height="12" viewBox="0 0 21 12" fill="none" xmlns="http://www.w3.org/2000/svg">
<path d="M9.39154 10.0991C9.44487 10.0541 9.49904 10.0075 9.54904 9.95829C6.76487 12.69 2.22487 11.415 1.16071 7.56246V7.55662C-0.266793 2.31496 5.75237 -1.66671 9.54737 1.99996C9.62654 2.08412 14.869 7.67496 14.5357 7.31912H14.5507C15.3332 8.12579 16.4649 8.03746 17.1382 7.33246C17.8624 6.57579 17.8882 5.34079 17.1774 4.57162C16.0549 3.27912 13.8507 4.24496 14.0615 6.16079L12.7999 4.87579L11.3365 3.47662C11.6382 2.87746 12.034 2.35329 12.5299 1.89996C12.4765 1.94579 12.4224 1.99329 12.3724 2.04079C15.1674 -0.700877 19.704 0.604123 20.7607 4.43996V4.44496C22.1915 9.68579 16.1657 13.6675 12.374 10.0008C12.2965 9.91746 7.05737 4.29162 7.38904 4.64829L7.38571 4.63579C7.37237 4.63579 7.37237 4.62329 7.37237 4.62329C6.55071 3.77579 5.43654 3.90329 4.78487 4.59746C4.05987 5.35412 4.03487 6.58912 4.74737 7.34662C5.82071 8.60912 8.07237 7.67329 7.86071 5.71912C7.94237 5.80329 10.7682 8.70412 10.5882 8.51996C10.1307 9.43246 9.61904 9.85162 9.39154 10.0991Z" fill="#3734A9"/>
</svg>
